<?xml version="1.0" encoding="UTF-8" standalone="no"?>
<!DOCTYPE svg PUBLIC "-//W3C//DTD SVG 20010904//EN"
              "http://www.w3.org/TR/2001/REC-SVG-20010904/DTD/svg10.dtd">

<svg xmlns="http://www.w3.org/2000/svg"
     width="6.31944in" height="7.06944in"
     viewBox="0 0 455 509">
  <path id="Selection"
        fill="#df650f" stroke="#df650f" stroke-width="1"
        d="M 116.00,146.00
           C 118.53,140.06 125.87,132.05 130.29,127.00
             132.33,124.67 136.50,120.96 137.08,118.00
             137.55,115.55 135.54,111.34 134.60,109.00
             133.05,105.13 127.23,91.31 127.33,88.01
             127.46,83.67 131.85,81.25 135.00,79.00
             135.00,79.00 156.00,64.28 156.00,64.28
             158.52,62.52 162.97,58.84 166.00,58.64
             169.57,58.40 172.65,61.74 175.00,64.02
             177.66,66.59 188.45,76.94 191.00,78.30
             194.34,80.08 197.72,78.12 201.00,77.00
             201.00,77.00 226.86,69.30 226.86,69.30
             230.51,67.48 230.64,63.59 231.25,60.00
             232.07,55.14 234.19,39.45 236.72,36.23
             239.58,32.59 243.87,33.01 248.00,33.00
             248.00,33.00 275.00,33.00 275.00,33.00
             277.31,33.00 280.77,32.80 282.77,34.02
             285.79,35.87 286.05,39.84 286.59,43.00
             286.59,43.00 288.72,58.00 288.72,58.00
             289.00,60.27 288.93,63.80 290.17,65.69
             292.35,69.00 305.91,70.67 310.00,71.00
             307.07,79.78 299.69,102.76 299.00,111.00
             290.32,109.85 281.79,108.01 273.00,108.00
             255.51,107.97 241.63,109.89 225.00,115.69
             185.87,129.34 157.19,162.30 144.33,201.00
             141.14,210.60 138.12,224.92 138.00,235.00
             137.69,261.60 140.42,280.72 152.26,305.00
             152.26,305.00 169.00,333.00 169.00,333.00
             175.70,328.21 195.80,307.20 203.00,300.00
             210.55,292.45 214.98,290.97 215.00,280.00
             215.00,280.00 215.00,231.00 215.00,231.00
             215.00,228.44 214.88,225.44 215.70,223.00
             217.74,216.95 231.89,204.11 237.00,199.00
             239.24,196.76 244.82,190.29 247.96,190.34
             253.32,190.41 254.58,201.09 260.95,202.33
             264.40,203.01 267.42,201.03 270.00,199.03
             272.32,197.24 276.78,193.72 277.77,191.00
             278.66,188.56 277.11,184.62 276.84,182.00
             275.75,177.33 275.64,171.56 276.84,167.00
             286.68,136.02 331.34,141.22 333.82,174.00
             334.89,188.23 322.43,203.26 308.00,203.96
             304.54,204.13 300.37,204.07 297.00,203.32
             294.47,202.76 291.53,201.32 289.00,202.23
             285.03,203.66 279.66,211.72 274.00,214.55
             269.44,216.83 257.53,215.99 252.00,216.00
             249.91,216.00 246.94,215.88 245.00,216.60
             241.39,217.93 233.97,225.40 232.59,229.00
             231.38,232.19 232.00,240.26 232.00,244.00
             232.00,244.00 232.00,271.00 232.00,271.00
             232.00,271.00 256.00,271.00 256.00,271.00
             266.28,270.98 266.83,268.17 274.00,261.00
             274.00,261.00 300.01,233.31 300.01,233.31
             303.19,230.88 305.22,231.03 309.00,231.00
             309.00,231.00 333.00,231.00 333.00,231.00
             335.24,231.00 338.79,231.21 340.70,229.98
             344.28,227.67 343.26,221.45 349.61,213.00
             355.59,205.04 365.09,200.61 375.00,201.04
             389.55,201.67 401.64,214.57 401.99,229.00
             402.54,251.75 383.45,269.54 361.00,260.52
             345.25,254.20 351.94,246.03 337.00,246.00
             337.00,246.00 319.00,246.00 319.00,246.00
             308.34,246.02 307.38,249.62 300.00,257.00
             300.00,257.00 273.00,284.57 273.00,284.57
             267.24,288.76 249.56,286.98 242.00,287.00
             229.70,287.02 235.41,289.06 225.96,299.00
             225.96,299.00 196.00,330.00 196.00,330.00
             193.28,332.72 183.84,341.26 184.01,345.00
             184.11,347.28 186.43,349.18 188.01,350.56
             188.01,350.56 202.00,361.18 202.00,361.18
             203.29,361.89 204.46,362.53 206.00,362.28
             209.32,361.74 220.04,349.96 223.00,347.00
             223.00,347.00 253.00,317.00 253.00,317.00
             261.54,308.46 263.58,303.02 276.00,303.00
             276.00,303.00 307.00,303.00 307.00,303.00
             319.24,302.98 314.55,300.08 323.46,290.09
             327.98,285.03 335.21,281.51 342.00,281.09
             375.93,279.00 383.45,327.73 353.00,337.23
             343.30,340.25 331.99,339.54 324.04,332.67
             317.86,327.34 317.39,322.14 313.79,320.02
             311.70,318.79 308.38,319.00 306.00,319.00
             306.00,319.00 281.00,319.00 281.00,319.00
             269.35,319.02 269.26,323.70 261.00,332.00
             251.13,341.92 228.86,362.76 222.00,373.00
             249.72,384.09 271.49,387.47 301.00,380.99
             301.00,380.99 333.00,371.00 333.00,371.00
             333.00,371.00 346.28,395.00 346.28,395.00
             347.64,397.39 352.60,405.82 353.04,407.96
             353.82,411.72 350.76,412.24 349.59,415.21
             348.75,417.38 349.29,419.78 349.59,422.00
             349.59,422.00 351.24,439.00 351.24,439.00
             351.44,441.65 351.79,444.00 349.51,445.92
             347.54,447.57 339.79,449.62 337.00,450.42
             337.00,450.42 314.00,457.66 314.00,457.66
             310.18,458.53 306.08,460.41 302.38,457.66
             297.60,454.66 291.04,436.87 285.90,434.02
             284.08,433.01 282.01,433.04 280.00,432.92
             280.00,432.92 264.00,432.92 264.00,432.92
             260.44,432.49 256.50,431.11 253.39,433.60
             249.35,436.83 242.09,455.31 237.67,457.98
             235.75,459.14 233.14,459.01 231.00,458.68
             231.00,458.68 205.00,451.71 205.00,451.71
             201.75,450.79 193.72,448.97 191.23,447.44
             188.21,445.60 188.11,443.24 188.00,440.00
             187.85,434.29 190.49,419.51 188.00,415.21
             186.30,412.34 173.59,405.05 170.00,402.67
             166.92,400.62 159.49,394.60 156.00,395.14
             153.30,395.56 141.18,404.27 138.00,406.33
             135.75,407.79 132.83,409.90 130.00,409.55
             127.61,409.27 125.70,407.52 124.01,405.94
             124.01,405.94 101.93,381.00 101.93,381.00
             99.01,377.78 94.53,373.84 95.56,369.00
             96.27,365.65 104.04,354.53 106.31,351.00
             108.35,347.81 110.62,344.96 109.52,341.00
             109.52,341.00 100.86,321.00 100.86,321.00
             99.79,318.42 98.69,314.40 96.58,312.59
             91.16,307.95 74.67,311.85 68.22,308.35
             64.24,306.19 64.13,300.95 63.39,297.00
             63.39,297.00 58.41,271.00 58.41,271.00
             57.90,267.93 56.50,261.90 57.60,259.10
             60.31,252.24 82.77,247.84 85.40,241.79
             86.24,239.85 85.93,235.33 86.09,233.00
             86.09,233.00 88.52,211.04 88.52,211.04
             88.26,209.47 87.76,208.67 86.68,207.52
             86.68,207.52 69.00,195.67 69.00,195.67
             66.83,194.21 63.59,192.34 62.61,189.82
             61.09,185.86 67.22,174.33 69.01,170.00
             69.01,170.00 77.15,151.00 77.15,151.00
             78.34,148.25 79.48,144.76 82.21,143.06
             85.03,141.55 88.91,142.61 92.00,143.06
             92.00,143.06 116.00,146.00 116.00,146.00 Z
           M 246.00,108.00
           C 246.00,108.00 245.00,108.00 245.00,108.00
             245.00,108.00 246.00,109.00 246.00,109.00
             246.00,109.00 246.00,108.00 246.00,108.00 Z
           M 302.00,163.35
           C 285.43,168.16 292.34,190.55 306.00,187.60
             320.69,184.44 319.14,161.77 302.00,163.35 Z
           M 307.00,202.00
           C 307.00,202.00 306.00,202.00 306.00,202.00
             306.00,202.00 307.00,203.00 307.00,203.00
             307.00,203.00 307.00,202.00 307.00,202.00 Z
           M 369.00,218.39
           C 354.69,223.11 358.61,243.68 371.00,244.89
             386.10,246.36 390.74,226.81 379.96,219.74
             376.67,217.58 372.71,217.89 369.00,218.39 Z
           M 376.00,260.00
           C 376.00,260.00 375.00,260.00 375.00,260.00
             375.00,260.00 376.00,261.00 376.00,261.00
             376.00,261.00 376.00,260.00 376.00,260.00 Z
           M 341.00,298.39
           C 327.27,302.83 330.05,319.87 342.00,320.89
             356.25,322.11 359.86,304.44 349.96,299.17
             347.15,297.68 344.01,297.99 341.00,298.39 Z
           M 88.00,308.00
           C 88.00,308.00 87.00,308.00 87.00,308.00
             87.00,308.00 88.00,309.00 88.00,309.00
             88.00,309.00 88.00,308.00 88.00,308.00 Z
           M 131.00,408.00
           C 131.00,408.00 130.00,408.00 130.00,408.00
             130.00,408.00 131.00,409.00 131.00,409.00
             131.00,409.00 131.00,408.00 131.00,408.00 Z
           M 344.00,446.00
           C 344.00,446.00 343.00,446.00 343.00,446.00
             343.00,446.00 344.00,447.00 344.00,447.00
             344.00,447.00 344.00,446.00 344.00,446.00 Z
           M 337.00,448.00
           C 337.00,448.00 336.00,448.00 336.00,448.00
             336.00,448.00 337.00,449.00 337.00,449.00
             337.00,449.00 337.00,448.00 337.00,448.00 Z" />
</svg>
